<svg width="32.000000" height="32.000000" viewBox="0 0 32 32" fill="none" xmlns="http://www.w3.org/2000/svg" xmlns:xlink="http://www.w3.org/1999/xlink">
	<desc>
			Created with Pixso.
	</desc>
	<defs>
		<clipPath id="clip6_2061">
			<rect id="icon-monitor" rx="-0.500000" width="31.000000" height="31.000000" transform="translate(0.500000 0.500000)" fill="white" fill-opacity="0"/>
		</clipPath>
	</defs>
	<g clip-path="url(#clip6_2061)">
		<path id="Shape" d="M17.33 23.99L26.66 23.99C28.87 23.99 30.66 22.2 30.66 19.99L30.66 6.66C30.66 4.45 28.87 2.66 26.66 2.66L5.33 2.66C3.12 2.66 1.33 4.45 1.33 6.66L1.33 19.99C1.33 22.2 3.12 23.99 5.33 23.99L14.66 23.99L14.66 26.66L10.66 26.66C9.93 26.66 9.33 27.26 9.33 27.99C9.33 28.73 9.93 29.33 10.66 29.33L21.33 29.33C22.06 29.33 22.66 28.73 22.66 27.99C22.66 27.26 22.06 26.66 21.33 26.66L17.33 26.66L17.33 23.99ZM5.33 5.33C4.59 5.33 4 5.93 4 6.66L4 19.99C4 20.73 4.59 21.33 5.33 21.33L26.66 21.33C27.4 21.33 28 20.73 28 19.99L28 6.66C28 5.93 27.4 5.33 26.66 5.33L5.33 5.33Z" fill="#292F36" fill-opacity="1.000000" fill-rule="evenodd"/>
	</g>
</svg>
