<svg width="16.000000" height="16.000000" viewBox="0 0 16 16" fill="none" xmlns="http://www.w3.org/2000/svg" xmlns:xlink="http://www.w3.org/1999/xlink">
	<desc>
			Created with Pixso.
	</desc>
	<defs>
		<clipPath id="clip6_2131">
			<rect id="icon-mouse-pointer" rx="-0.500000" width="15.000000" height="15.000000" transform="translate(0.500000 0.500000)" fill="white" fill-opacity="0"/>
		</clipPath>
	</defs>
	<g clip-path="url(#clip6_2131)">
		<path id="Shape" d="M2.25 1.38C2 1.28 1.71 1.33 1.52 1.52C1.33 1.71 1.28 2 1.38 2.25L6.09 13.56C6.2 13.82 6.45 13.98 6.73 13.97C7.01 13.97 7.25 13.79 7.34 13.52L8.67 9.61L12.19 13.13C12.45 13.39 12.87 13.39 13.13 13.13C13.39 12.87 13.39 12.45 13.13 12.19L9.61 8.67L13.52 7.34C13.79 7.25 13.97 7.01 13.97 6.73C13.98 6.45 13.82 6.2 13.56 6.09L2.25 1.38ZM6.64 11.42L3.23 3.23L11.42 6.64L8.17 7.75C7.97 7.82 7.82 7.97 7.75 8.17L6.64 11.42Z" fill="#12F7D6" fill-opacity="1.000000" fill-rule="evenodd"/>
	</g>
</svg>
