<svg width="24.000000" height="24.000000" viewBox="0 0 24 24" fill="none" xmlns="http://www.w3.org/2000/svg" xmlns:xlink="http://www.w3.org/1999/xlink">
	<desc>
			Created with Pixso.
	</desc>
	<defs>
		<clipPath id="clip3_3497">
			<rect id="icon-download" rx="-0.500000" width="23.000000" height="23.000000" transform="translate(0.500000 0.500000)" fill="white" fill-opacity="0"/>
		</clipPath>
	</defs>
	<g clip-path="url(#clip3_3497)">
		<path id="Shape" d="M12 2C12.55 2 13 2.44 13 3L13 12.58L16.29 9.29C16.68 8.9 17.31 8.9 17.7 9.29C18.09 9.68 18.09 10.31 17.7 10.7L12.7 15.7C12.31 16.09 11.68 16.09 11.29 15.7L6.29 10.7C5.9 10.31 5.9 9.68 6.29 9.29C6.68 8.9 7.31 8.9 7.7 9.29L11 12.58L11 3C11 2.44 11.44 2 12 2ZM4 15C4 14.44 3.55 14 3 14C2.44 14 2 14.44 2 15L2 19C2 19.79 2.31 20.55 2.87 21.12C3.44 21.68 4.2 22 5 22L19 22C19.79 22 20.55 21.68 21.12 21.12C21.68 20.55 22 19.79 22 19L22 15C22 14.44 21.55 14 21 14C20.44 14 20 14.44 20 15L20 19C20 19.26 19.89 19.51 19.7 19.7C19.51 19.89 19.26 20 19 20L5 20C4.73 20 4.48 19.89 4.29 19.7C4.1 19.51 4 19.26 4 19L4 15Z" fill="#292F36" fill-opacity="1.000000" fill-rule="evenodd"/>
	</g>
</svg>
