<svg width="14.000000" height="14.000000" viewBox="0 0 14 14" fill="none" xmlns="http://www.w3.org/2000/svg" xmlns:xlink="http://www.w3.org/1999/xlink">
	<desc>
			Created with Pixso.
	</desc>
	<defs>
		<clipPath id="clip3_3080">
			<rect id="icon-link" rx="-0.500000" width="13.000000" height="13.000000" transform="translate(0.500000 0.500000)" fill="white" fill-opacity="0"/>
		</clipPath>
	</defs>
	<rect id="icon-link" rx="-0.500000" width="13.000000" height="13.000000" transform="translate(0.500000 0.500000)" fill="#FFFFFF" fill-opacity="0"/>
	<g clip-path="url(#clip3_3080)">
		<path id="Shape" d="M7.45 1.6C8.11 0.96 8.99 0.61 9.91 0.62C10.83 0.63 11.7 0.99 12.35 1.64C13 2.29 13.37 3.17 13.38 4.09C13.39 5 13.03 5.89 12.4 6.55L12.39 6.56L10.64 8.31C10.28 8.66 9.86 8.94 9.39 9.11C8.92 9.29 8.41 9.36 7.91 9.32C7.41 9.29 6.93 9.14 6.49 8.9C6.05 8.66 5.66 8.33 5.36 7.93C5.17 7.67 5.22 7.3 5.48 7.11C5.74 6.92 6.1 6.97 6.3 7.23C6.5 7.5 6.75 7.72 7.05 7.88C7.34 8.04 7.66 8.13 8 8.16C8.33 8.18 8.67 8.13 8.98 8.02C9.29 7.9 9.58 7.72 9.81 7.48L11.56 5.73C11.98 5.29 12.22 4.71 12.21 4.1C12.21 3.48 11.96 2.9 11.53 2.47C11.1 2.03 10.51 1.79 9.9 1.78C9.29 1.78 8.7 2.01 8.26 2.44L7.26 3.43C7.03 3.66 6.66 3.66 6.44 3.43C6.21 3.2 6.21 2.83 6.44 2.6L7.44 1.61L7.45 1.6ZM4.6 4.88C5.07 4.7 5.58 4.63 6.08 4.67C6.58 4.7 7.06 4.85 7.5 5.09C7.94 5.33 8.33 5.66 8.63 6.06C8.82 6.32 8.77 6.69 8.51 6.88C8.25 7.07 7.89 7.02 7.69 6.76C7.49 6.49 7.24 6.27 6.94 6.11C6.65 5.95 6.33 5.86 5.99 5.83C5.66 5.81 5.32 5.86 5.01 5.97C4.7 6.09 4.41 6.27 4.18 6.51L2.43 8.26C2.01 8.7 1.77 9.28 1.78 9.89C1.78 10.5 2.03 11.09 2.46 11.52C2.89 11.96 3.48 12.2 4.09 12.21C4.7 12.21 5.29 11.98 5.73 11.55L6.72 10.56C6.95 10.33 7.32 10.33 7.55 10.56C7.78 10.79 7.78 11.16 7.55 11.39L6.55 12.38L6.54 12.39C5.88 13.03 5 13.38 4.08 13.37C3.16 13.36 2.29 13 1.64 12.35C0.99 11.7 0.62 10.82 0.61 9.9C0.6 8.99 0.96 8.1 1.59 7.44L1.6 7.43L3.35 5.68C3.71 5.33 4.13 5.05 4.6 4.88Z" fill="#12F7D6" fill-opacity="1.000000" fill-rule="evenodd"/>
	</g>
</svg>
