<svg width="14.000000" height="14.000000" viewBox="0 0 14 14" fill="none" xmlns="http://www.w3.org/2000/svg" xmlns:xlink="http://www.w3.org/1999/xlink">
	<desc>
			Created with Pixso.
	</desc>
	<defs>
		<clipPath id="clip3_3110">
			<rect id="icon-mail" rx="-0.500000" width="13.000000" height="13.000000" transform="translate(0.500000 0.500000)" fill="white" fill-opacity="0"/>
		</clipPath>
	</defs>
	<rect id="icon-mail" rx="-0.500000" width="13.000000" height="13.000000" transform="translate(0.500000 0.500000)" fill="#FFFFFF" fill-opacity="0"/>
	<g clip-path="url(#clip3_3110)">
		<path id="Shape" d="M0.58 3.48C0.58 3.49 0.58 3.5 0.58 3.5L0.58 10.5C0.58 11.46 1.36 12.25 2.33 12.25L11.66 12.25C12.63 12.25 13.41 11.46 13.41 10.5L13.41 3.5C13.41 3.5 13.41 3.49 13.41 3.48C13.41 2.53 12.62 1.75 11.66 1.75L2.33 1.75C1.37 1.75 0.58 2.53 0.58 3.48ZM1.81 3.23C1.9 3.04 2.1 2.91 2.33 2.91L11.66 2.91C11.89 2.91 12.09 3.04 12.18 3.23L7 6.87L1.81 3.23ZM12.25 4.62L12.25 10.5C12.25 10.81 11.98 11.08 11.66 11.08L2.33 11.08C2.01 11.08 1.75 10.81 1.75 10.5L1.75 4.62L6.66 8.06C6.86 8.2 7.13 8.2 7.33 8.06L12.25 4.62Z" fill="#12F7D6" fill-opacity="1.000000" fill-rule="evenodd"/>
	</g>
</svg>
