<svg width="14.000000" height="14.000000" viewBox="0 0 14 14" fill="none" xmlns="http://www.w3.org/2000/svg" xmlns:xlink="http://www.w3.org/1999/xlink">
	<desc>
			Created with Pixso.
	</desc>
	<defs>
		<clipPath id="clip3_3316">
			<rect id="icon-map-pin" rx="-0.500000" width="13.000000" height="13.000000" transform="translate(0.500000 0.500000)" fill="white" fill-opacity="0"/>
		</clipPath>
	</defs>
	<rect id="icon-map-pin" rx="-0.500000" width="13.000000" height="13.000000" transform="translate(0.500000 0.500000)" fill="#FFFFFF" fill-opacity="0"/>
	<g clip-path="url(#clip3_3316)">
		<path id="Shape" d="M7 13.41C6.67 13.9 6.67 13.9 6.67 13.9L7 13.41ZM7.32 13.9L7.32 13.9L7.32 13.89L7.34 13.88C7.35 13.88 7.37 13.87 7.39 13.85C7.43 13.82 7.49 13.78 7.56 13.73C7.71 13.62 7.92 13.46 8.18 13.26C8.69 12.85 9.36 12.27 10.04 11.55C11.38 10.14 12.83 8.1 12.83 5.83C12.83 4.28 12.21 2.8 11.12 1.7C10.03 0.61 8.54 0 7 0C5.45 0 3.96 0.61 2.87 1.7C1.78 2.8 1.16 4.28 1.16 5.83C1.16 8.1 2.61 10.14 3.95 11.55C4.63 12.27 5.3 12.85 5.81 13.26C6.07 13.46 6.28 13.62 6.43 13.73C6.5 13.78 6.56 13.82 6.6 13.85C6.62 13.87 6.64 13.88 6.65 13.88L6.67 13.89L6.67 13.9L6.67 13.9C6.87 14.03 7.12 14.03 7.32 13.9ZM7 1.16C5.76 1.16 4.57 1.65 3.7 2.53C2.82 3.4 2.33 4.59 2.33 5.83C2.33 7.64 3.5 9.39 4.79 10.75C5.43 11.42 6.06 11.96 6.54 12.34C6.72 12.49 6.87 12.6 7 12.7C7.12 12.6 7.27 12.49 7.45 12.34C7.93 11.96 8.56 11.42 9.2 10.75C10.49 9.39 11.66 7.64 11.66 5.83C11.66 4.59 11.17 3.4 10.29 2.53C9.42 1.65 8.23 1.16 7 1.16ZM4.66 5.83C4.66 4.54 5.71 3.5 7 3.5C8.28 3.5 9.33 4.54 9.33 5.83C9.33 7.12 8.28 8.16 7 8.16C5.71 8.16 4.66 7.12 4.66 5.83ZM7 4.66C6.35 4.66 5.83 5.18 5.83 5.83C5.83 6.47 6.35 7 7 7C7.64 7 8.16 6.47 8.16 5.83C8.16 5.18 7.64 4.66 7 4.66ZM7.32 13.9L7 13.41L7.32 13.9Z" fill="#12F7D6" fill-opacity="1.000000" fill-rule="evenodd"/>
	</g>
</svg>
