<svg width="11.500000" height="86.750000" viewBox="0 0 11.5 86.75" fill="none" xmlns="http://www.w3.org/2000/svg" xmlns:xlink="http://www.w3.org/1999/xlink">
	<desc>
			Created with Pixso.
	</desc>
	<defs/>
	<path id="Arrow 1" d="M11.5 81L5.75 75.25L0 81L5.75 86.75L11.5 81ZM6.75 1L6.75 4.33Q6.75 4.74 6.45 5.04Q6.16 5.33 5.75 5.33Q5.33 5.33 5.04 5.04Q4.75 4.74 4.75 4.33L4.75 1C4.75 0.43 5.19 0 5.75 0C6.31 0 6.75 0.43 6.75 1ZM6.75 17.66L6.75 11Q6.75 10.58 6.45 10.29Q6.16 10 5.75 10Q5.33 10 5.04 10.29Q4.75 10.58 4.75 11L4.75 17.66Q4.75 18.08 5.04 18.37Q5.33 18.66 5.75 18.66Q6.16 18.66 6.45 18.37Q6.75 18.08 6.75 17.66ZM6.75 31L6.75 24.33Q6.75 23.91 6.45 23.62Q6.16 23.33 5.75 23.33Q5.33 23.33 5.04 23.62Q4.75 23.91 4.75 24.33L4.75 31Q4.75 31.41 5.04 31.7Q5.33 32 5.75 32Q6.16 32 6.45 31.7Q6.75 31.41 6.75 31ZM6.75 44.33L6.75 37.66Q6.75 37.25 6.45 36.95Q6.16 36.66 5.75 36.66Q5.33 36.66 5.04 36.95Q4.75 37.25 4.75 37.66L4.75 44.33Q4.75 44.74 5.04 45.04Q5.33 45.33 5.75 45.33Q6.16 45.33 6.45 45.04Q6.75 44.74 6.75 44.33ZM6.75 57.66L6.75 51Q6.75 50.58 6.45 50.29Q6.16 50 5.75 50Q5.33 50 5.04 50.29Q4.75 50.58 4.75 51L4.75 57.66Q4.75 58.08 5.04 58.37Q5.33 58.66 5.75 58.66Q6.16 58.66 6.45 58.37Q6.75 58.08 6.75 57.66ZM6.75 71L6.75 64.33Q6.75 63.91 6.45 63.62Q6.16 63.33 5.75 63.33Q5.33 63.33 5.04 63.62Q4.75 63.91 4.75 64.33L4.75 71Q4.75 71.41 5.04 71.7Q5.33 72 5.75 72Q6.16 72 6.45 71.7Q6.75 71.41 6.75 71Z" fill="#FFFFFF" fill-opacity="1.000000" fill-rule="evenodd"/>
</svg>
