<svg width="24.000000" height="24.000000" viewBox="0 0 24 24" fill="none" xmlns="http://www.w3.org/2000/svg" xmlns:xlink="http://www.w3.org/1999/xlink">
	<desc>
			Created with Pixso.
	</desc>
	<defs>
		<clipPath id="clip9_2251">
			<rect id="icon-send" rx="-0.500000" width="23.000000" height="23.000000" transform="translate(0.500000 0.500000)" fill="white" fill-opacity="0"/>
		</clipPath>
	</defs>
	<g clip-path="url(#clip9_2251)">
		<path id="Shape" d="M22.7 1.29C22.93 1.51 23.02 1.81 22.99 2.11C22.98 2.19 22.96 2.27 22.93 2.35L15.94 22.33C15.8 22.71 15.45 22.98 15.04 22.99C14.63 23.01 14.25 22.78 14.08 22.4L10.24 13.75L1.59 9.91C1.21 9.74 0.98 9.36 1 8.95C1.01 8.54 1.28 8.19 1.66 8.05L21.64 1.06C21.72 1.03 21.8 1.01 21.89 1C21.95 0.99 22.01 0.99 22.07 1C22.3 1.01 22.53 1.11 22.7 1.29ZM18.19 4.39L4.71 9.11L10.77 11.8L18.19 4.39ZM12.19 13.22L19.6 5.8L14.88 19.28L12.19 13.22Z" fill="#292F36" fill-opacity="1.000000" fill-rule="evenodd"/>
	</g>
</svg>
